# xmcd CD database file
#
# Track frame offsets:
#	150
#	13312
#	24840
#	37146
#	49881
#	62736
#	75626
#	89589
#	101652
#	114291
#	127568
#	141957
#	156617
#	169916
#	183774
#
# Disc length: 2638 seconds
#
# Revision: 0
# Processed by: cddbd v1.5.1PL2 Copyright (c) Steve Scherf et al.
# Submitted via: CDex 1.51
#
DISCID=c50a4c0f
DTITLE=Art Tatum - Complete Capitol Recordings
DYEAR=1900
DGENRE=Jazz
TTITLE0=Willow Weep For Me
TTITLE1=I Cover The Waterfront
TTITLE2=Aunt Hagar's Blues
TTITLE3=Nice Work If You Can Get It
TTITLE4=Someone To Watch Over Me
TTITLE5=Dardanella
TTITLE6=Time On My Hands
TTITLE7=Sweet Lorraine
TTITLE8=Somebody Loves Me
TTITLE9=Don't Blame Me
TTITLE10=My Heart Stood Still
TTITLE11=You Took Advantage Of Me
TTITLE12=I Gotta Right To Sing The Blues
TTITLE13=How High The Moon
TTITLE14=Goin' Home
EXTD=
EXTT0=
EXTT1=
EXTT2=
EXTT3=
EXTT4=
EXTT5=
EXTT6=
EXTT7=
EXTT8=
EXTT9=
EXTT10=
EXTT11=
EXTT12=
EXTT13=
EXTT14=
PLAYORDER=
